 <svg xmlns="http://www.w3.org/2000/svg" width="16" height="16" viewBox="0 0 16 16" fill="none">
                        <path
                            fill-rule="evenodd"
                            clip-rule="evenodd"
                            d="M7.46875 14.4698C7.46875 14.7626 7.70613 15 7.99895 15C8.29178 15 8.52916 14.7626 8.52916 14.4698V8.53019H14.4698C14.7626 8.53019 15 8.29281 15 7.99999C15 7.70717 14.7626 7.46979 14.4698 7.46979H8.52916V1.5302C8.52916 1.23738 8.29178 1 7.99895 1C7.70613 1 7.46875 1.23738 7.46875 1.5302V7.46979H1.5302C1.23738 7.46979 1 7.70717 1 7.99999C1 8.29281 1.23738 8.53019 1.5302 8.53019H7.46875V14.4698Z"
                            fill="#282D31"
                        />
                        <path
                            d="M8.52916 8.53019V8.03019H8.02916V8.53019H8.52916ZM8.52916 7.46979H8.02916V7.96979H8.52916V7.46979ZM8.52916 1.5302H9.02916V1.5302L8.52916 1.5302ZM7.46875 7.46979V7.96979H7.96875V7.46979H7.46875ZM7.46875 8.53019H7.96875V8.03019H7.46875V8.53019ZM7.99895 14.5C7.98227 14.5 7.96875 14.4865 7.96875 14.4698H6.96875C6.96875 15.0388 7.42999 15.5 7.99895 15.5V14.5ZM8.02916 14.4698C8.02916 14.4865 8.01563 14.5 7.99895 14.5V15.5C8.56792 15.5 9.02916 15.0388 9.02916 14.4698H8.02916ZM8.02916 8.53019V14.4698H9.02916V8.53019H8.02916ZM14.4698 8.03019H8.52916V9.0302H14.4698V8.03019ZM14.5 7.99999C14.5 8.01667 14.4865 8.03019 14.4698 8.03019V9.0302C15.0388 9.0302 15.5 8.56896 15.5 7.99999H14.5ZM14.4698 7.96979C14.4865 7.96979 14.5 7.98331 14.5 7.99999H15.5C15.5 7.43103 15.0388 6.96979 14.4698 6.96979V7.96979ZM8.52916 7.96979H14.4698V6.96979H8.52916V7.96979ZM8.02916 1.5302V7.46979H9.02916V1.5302H8.02916ZM7.99895 1.5C8.01563 1.5 8.02916 1.51352 8.02916 1.5302L9.02916 1.5302C9.02916 0.961235 8.56792 0.5 7.99895 0.5V1.5ZM7.96875 1.5302C7.96875 1.51352 7.98227 1.5 7.99895 1.5V0.5C7.42999 0.5 6.96875 0.961235 6.96875 1.5302H7.96875ZM7.96875 7.46979V1.5302H6.96875V7.46979H7.96875ZM1.5302 7.96979H7.46875V6.96979H1.5302V7.96979ZM1.5 7.99999C1.5 7.98331 1.51352 7.96979 1.5302 7.96979V6.96979C0.961238 6.96979 0.5 7.43103 0.5 7.99999H1.5ZM1.5302 8.03019C1.51352 8.03019 1.5 8.01667 1.5 7.99999H0.5C0.5 8.56896 0.961238 9.0302 1.5302 9.0302V8.03019ZM7.46875 8.03019H1.5302V9.0302H7.46875V8.03019ZM7.96875 14.4698V8.53019H6.96875V14.4698H7.96875Z"
                            fill="black"
                        />
                    </svg>
