<svg width="20" height="20" viewBox="0 0 20 20" fill="none" xmlns="http://www.w3.org/2000/svg">
    <path d="M14.6234 1.00354L12.2249 1C9.5302 1 7.78878 2.64211 7.78878 5.18372V7.1127H5.37715C5.16875 7.1127 5 7.26798 5 7.45952V10.2544C5 10.4459 5.16895 10.601 5.37715 10.601H7.78878V17.6534C7.78878 17.8449 7.95753 18 8.16593 18H11.3124C11.5208 18 11.6896 17.8447 11.6896 17.6534V10.601H14.5093C14.7177 10.601 14.8865 10.4459 14.8865 10.2544L14.8876 7.45952C14.8876 7.36755 14.8478 7.27948 14.7772 7.21439C14.7066 7.14931 14.6103 7.1127 14.5103 7.1127H11.6896V5.47748C11.6896 4.69153 11.8933 4.29254 13.0073 4.29254L14.623 4.29201C14.8312 4.29201 15 4.13673 15 3.94537V1.35018C15 1.15899 14.8314 1.00389 14.6234 1.00354Z" fill="#0C0C0C"/>
    </svg>
