<svg xmlns="http://www.w3.org/2000/svg" width="20" height="20" viewBox="0 0 20 20" fill="none">
    <path d="M19 5.29088C18.3375 5.59152 17.6266 5.7954 16.8797 5.88643C17.6424 5.41875 18.2261 4.67694 18.5028 3.79573C17.7874 4.22884 16.9978 4.54332 16.1565 4.71381C15.4827 3.97775 14.5244 3.51929 13.4615 3.51929C11.4222 3.51929 9.76879 5.21257 9.76879 7.2998C9.76879 7.59582 9.80141 7.88495 9.86441 8.16143C6.796 8.00359 4.07515 6.49808 2.25412 4.2104C1.93579 4.76793 1.75471 5.41757 1.75471 6.11103C1.75471 7.42305 2.40709 8.5807 3.39691 9.25799C2.79176 9.23727 2.22262 9.06679 1.72435 8.78341V8.83064C1.72435 10.6621 2.99762 12.1907 4.68591 12.5386C4.37659 12.6238 4.05041 12.6711 3.71297 12.6711C3.47453 12.6711 3.24394 12.6469 3.01785 12.6008C3.488 14.104 4.85126 15.1972 6.46647 15.2271C5.20332 16.2408 3.61062 16.8432 1.88071 16.8432C1.58265 16.8432 1.28906 16.8248 1 16.7914C2.63432 17.8661 4.57459 18.4928 6.65994 18.4928C13.4525 18.4928 17.1655 12.731 17.1655 7.73408L17.1531 7.24453C17.8786 6.71462 18.5062 6.04884 19 5.29088Z" fill="#0C0C0C"/>
    </svg>
